<svg xmlns="http://www.w3.org/2000/svg" viewBox="0 0 800 600" width="800" height="600">
  <defs>
    <linearGradient id="sky" x1="0" y1="0" x2="0" y2="1">
      <stop offset="0" style="stop-color:#00f5ff"/>
      <stop offset="0.5" style="stop-color:#7b2cbf"/>
      <stop offset="1" style="stop-color:#10002b"/>
    </linearGradient>
    <linearGradient id="kern" x1="0" y1="0" x2="1" y2="1">
      <stop offset="0" style="stop-color:#ffd166"/>
      <stop offset="1" style="stop-color:#ef476f"/>
    </linearGradient>
  </defs>
  <rect width="800" height="600" fill="url(#sky)"/>
  <g>
    <ellipse cx="120" cy="140" rx="35" ry="50" fill="url(#kern)" transform="rotate(-20 120 140)"/>
    <ellipse cx="220" cy="100" rx="38" ry="52" fill="url(#kern)" transform="rotate(12 220 100)"/>
    <ellipse cx="340" cy="160" rx="40" ry="55" fill="#ffe066" transform="rotate(25 340 160)"/>
    <ellipse cx="480" cy="120" rx="36" ry="48" fill="url(#kern)" transform="rotate(-8 480 120)"/>
    <ellipse cx="620" cy="180" rx="42" ry="58" fill="#ff6b6b" transform="rotate(15 620 180)"/>
    <ellipse cx="180" cy="280" rx="37" ry="51" fill="#ffd166" transform="rotate(30 180 280)"/>
    <ellipse cx="300" cy="320" rx="39" ry="54" fill="url(#kern)" transform="rotate(-12 300 320)"/>
    <ellipse cx="450" cy="260" rx="41" ry="56" fill="#ffe066" transform="rotate(8 450 260)"/>
    <ellipse cx="600" cy="300" rx="38" ry="50" fill="#ff6b6b" transform="rotate(-25 600 300)"/>
    <ellipse cx="250" cy="440" rx="44" ry="60" fill="url(#kern)" transform="rotate(5 250 440)"/>
    <ellipse cx="420" cy="460" rx="40" ry="57" fill="#ffd166" transform="rotate(-18 420 460)"/>
    <ellipse cx="550" cy="420" rx="43" ry="59" fill="#ffe066" transform="rotate(22 550 420)"/>
  </g>
</svg>
